Coordinates
version=1
nRows=17
nColumns=24
inDegrees=yes

Units are S.I. units (second, meters, Newtons, ...)
Angles are in degrees.

endheader
time	pelvis_tilt	pelvis_list	pelvis_rotation	pelvis_tx	pelvis_ty	pelvis_tz	hip_flexion_r	hip_adduction_r	hip_rotation_r	knee_angle_r	ankle_angle_r	subtalar_angle_r	mtp_angle_r	hip_flexion_l	hip_adduction_l	hip_rotation_l	knee_angle_l	ankle_angle_l	subtalar_angle_l	mtp_angle_l	lumbar_extension	lumbar_bending	lumbar_rotation
      2.15000000	     10.47224213	     -6.06887399	      7.30517559	      0.25626803	      0.95567544	      0.00607776	     -6.93209392	     11.33810327	    -13.61168076	     -7.88648903	     16.22571194	    -10.32392330	     15.54098176	      5.41083869	     -9.65209161	      0.40582902	    -62.52183693	     13.46004225	     -7.48118278	     28.28427077	    -16.91350883	      8.18701499	     -2.14018541
      2.15500000	     10.65707214	     -5.78201427	      7.26966724	      0.26174290	      0.95674796	      0.00646708	     -7.74734112	     11.15522214	    -13.51662437	     -7.48079529	     16.26478548	    -10.20779446	     15.51605454	      5.55695591	     -9.29789319	      0.14774575	    -61.84353952	     13.95174710	     -7.38984518	     27.91079897	    -17.14974986	      7.87717501	     -2.16842687
      2.16000000	     10.83943713	     -5.48580472	      7.22599828	      0.26720736	      0.95779320	      0.00683931	     -8.55234930	     10.95549605	    -13.44553835	     -7.08901550	     16.29866937	    -10.07491679	     15.49923011	      5.67992856	     -8.93064992	     -0.12452086	    -61.08958414	     14.42522168	     -7.31813866	     27.51648995	    -17.38357219	      7.55611199	     -2.19266677
      2.16500000	     11.01603484	     -5.18171288	      7.17099465	      0.27265795	      0.95879437	      0.00722585	     -9.34827594	     10.74370205	    -13.36579463	     -6.70250588	     16.35605898	     -9.93372539	     15.49309001	      5.78656088	     -8.55511529	     -0.40999419	    -60.26753254	     14.86810353	     -7.24991543	     27.14334097	    -17.61301184	      7.22100060	     -2.21054400
      2.17000000	     11.19171221	     -4.87353649	      7.10329723	      0.27809899	      0.95976546	      0.00761440	    -10.13009907	     10.52054561	    -13.32709766	     -6.33940482	     16.38864894	     -9.77650668	     15.49321152	      5.86575044	     -8.17933176	     -0.72571141	    -59.36635057	     15.29695706	     -7.21587301	     26.76456116	    -17.84434041	      6.87674852	     -2.23437172
      2.17500000	     11.35185547	     -4.55860145	      7.02697837	      0.28350872	      0.96066839	      0.00800733	    -10.88860653	     10.28410015	    -13.26230660	     -5.98600078	     16.48106646	     -9.61497609	     15.50539563	      5.94356848	     -7.79041101	     -1.04235080	    -58.40170024	     15.67879845	     -7.19500309	     26.42528079	    -18.05968574	      6.52078173	     -2.24890816
      2.18000000	     11.50617251	     -4.23890300	      6.93431510	      0.28891438	      0.96154204	      0.00840184	    -11.62562305	     10.03302582	    -13.23373189	     -5.66133642	     16.54802955	     -9.43181028	     15.51937223	      5.99512824	     -7.39895045	     -1.39176361	    -57.35415503	     16.03628406	     -7.22929308	     26.08923072	    -18.27057744	      6.15480344	     -2.26048217
      2.18500000	     11.66333503	     -3.91783351	      6.83226251	      0.29430539	      0.96237244	      0.00879868	    -12.35553168	      9.77488660	    -13.22747264	     -5.35298806	     16.62431722	     -9.22253202	     15.53956613	      6.01754442	     -7.00639886	     -1.75530208	    -56.23285560	     16.36210292	     -7.29232954	     25.74974817	    -18.48565365	      5.78369210	     -2.26205426
      2.19000000	     11.81116251	     -3.59317965	      6.72165852	      0.29969176	      0.96315864	      0.00917569	    -13.06256152	      9.50353004	    -13.25289916	     -5.06533898	     16.69994725	     -8.98875203	     15.56342751	      6.02132211	     -6.60670530	     -2.13153981	    -55.03396752	     16.64924870	     -7.39946806	     25.39848021	    -18.68694629	      5.40689206	     -2.24248771
      2.19500000	     11.95218361	     -3.27015097	      6.59418317	      0.30503960	      0.96387700	      0.00958435	    -13.74333916	      9.22546798	    -13.24809840	     -4.81243839	     16.82058643	     -8.75656097	     15.59264347	      6.00931819	     -6.21323031	     -2.53828817	    -53.76550820	     16.89596937	     -7.55264611	     25.09142855	    -18.88799223	      5.02467020	     -2.24910933
      2.20000000	     12.08561350	     -2.94618918	      6.45699755	      0.31038804	      0.96454380	      0.00998373	    -14.40266807	      8.93790167	    -13.26696907	     -4.58309959	     16.94371040	     -8.51433322	     15.62153517	      5.97500575	     -5.81594152	     -2.95797812	    -52.41824639	     17.09985391	     -7.75019977	     24.81727539	    -19.07847239	      4.63751163	     -2.23725298
      2.20500000	     12.22808789	     -2.61946838	      6.31271755	      0.31573505	      0.96518301	      0.01036421	    -15.06251933	      8.64134161	    -13.31758731	     -4.36760882	     17.07209136	     -8.23270673	     15.64982551	      5.89706042	     -5.41327622	     -3.39161397	    -50.98707745	     17.25731963	     -7.99575729	     24.55560882	    -19.27663561	      4.24743587	     -2.20736988
      2.21000000	     12.37651011	     -2.29072203	      6.15985938	      0.32109037	      0.96578118	      0.01074949	    -15.71924893	      8.33683987	    -13.38948339	     -4.17044150	     17.21880729	     -7.92405987	     15.67498883	      5.77861813	     -5.00957229	     -3.84113392	    -49.47194656	     17.36749344	     -8.27921585	     24.31030068	    -19.47937291	      3.84978542	     -2.17117715
      2.21500000	     12.51918690	     -1.96447554	      5.99434628	      0.32644086	      0.96632036	      0.01111214	    -16.35349840	      8.02349820	    -13.46465998	     -4.00197577	     17.38415301	     -7.60576942	     15.69296019	      5.63503888	     -4.60456220	     -4.31344426	    -47.87980547	     17.43147080	     -8.60294396	     24.09599588	    -19.67459565	      3.45431508	     -2.13104634
      2.22000000	     12.67331421	     -1.64054889	      5.81205879	      0.33178682	      0.96680952	      0.01148821	    -16.98331835	      7.70360344	    -13.53039072	     -3.86585621	     17.56809720	     -7.28366231	     15.70294405	      5.44332641	     -4.20281685	     -4.81167617	    -46.20422709	     17.45241477	     -8.96035241	     23.92096670	    -19.88261528	      3.05659007	     -2.08624133
      2.22500000	     12.82517318	     -1.32496461	      5.62629855	      0.33715181	      0.96724547	      0.01184627	    -17.60272087	      7.38681629	    -13.61879442	     -3.74130722	     17.76181476	     -6.94127938	     15.70420930	      5.22165946	     -3.80515653	     -5.32057321	    -44.44844323	     17.42132401	     -9.34179309	     23.78084041	    -20.08090958	      2.66560683	     -2.02971130
      2.23000000	     12.99421245	     -1.00603359	      5.42978816	      0.34253586	      0.96765385	      0.01218932	    -18.23570702	      7.06026139	    -13.71398634	     -3.62627618	     17.96426641	     -6.58543513	     15.69296941	      4.93856319	     -3.39927337	     -5.84769329	    -42.60011880	     17.33809753	     -9.73373763	     23.67809134	    -20.29615583	      2.26942040	     -1.95966544
